<?xml version="1.0" encoding="UTF-8" standalone="no"?>
<!-- Created with Inkscape (http://www.inkscape.org/) -->

<svg
   version="1.1"
   id="svg287"
   width="880"
   height="880"
   viewBox="0 0 880 880"
   sodipodi:docname="bouquet-of-flowers-vector--pdv.svg"
   inkscape:version="1.2 (dc2aedaf03, 2022-05-15)"
   xmlns:inkscape="http://www.inkscape.org/namespaces/inkscape"
   xmlns:sodipodi="http://sodipodi.sourceforge.net/DTD/sodipodi-0.dtd"
   xmlns="http://www.w3.org/2000/svg"
   xmlns:svg="http://www.w3.org/2000/svg">
  <defs
     id="defs291">
    <clipPath
       clipPathUnits="userSpaceOnUse"
       id="clipPath303">
      <path
         d="M 0,660 H 660 V 0 H 0 Z"
         id="path301" />
    </clipPath>
  </defs>
  <sodipodi:namedview
     id="namedview289"
     pagecolor="#ffffff"
     bordercolor="#000000"
     borderopacity="0.25"
     inkscape:showpageshadow="2"
     inkscape:pageopacity="0.0"
     inkscape:pagecheckerboard="0"
     inkscape:deskcolor="#d1d1d1"
     showgrid="false"
     inkscape:zoom="0.95113636"
     inkscape:cx="441.05137"
     inkscape:cy="440.52569"
     inkscape:window-width="1920"
     inkscape:window-height="1017"
     inkscape:window-x="-8"
     inkscape:window-y="-8"
     inkscape:window-maximized="1"
     inkscape:current-layer="g295">
    <inkscape:page
       x="0"
       y="0"
       id="page293"
       width="880"
       height="880" />
  </sodipodi:namedview>
  <g
     id="g295"
     inkscape:groupmode="layer"
     inkscape:label="Page 1"
     transform="matrix(1.3333333,0,0,-1.3333333,0,880)">
    <g
       id="g297">
      <g
         id="g299"
         clip-path="url(#clipPath303)">
        <g
           id="g305"
           transform="translate(329.4746,321.3018)">
          <path
             d="m 0,0 100.301,-154.399 c -50.806,-50.21 -151.97,-50.719 -200.6,0 z"
             style="fill:#ccc4af;fill-opacity:1;fill-rule:evenodd;stroke:none"
             id="path307" />
        </g>
        <g
           id="g309"
           transform="translate(333.2275,180.7383)">
          <path
             d="m 0,0 110.312,137.229 110.311,137.23 H 0 -220.623 l 110.312,-137.23 z"
             style="fill:#ccc4af;fill-opacity:1;fill-rule:evenodd;stroke:none"
             id="path311" />
        </g>
        <g
           id="g313"
           transform="translate(497.7852,385.4512)">
          <path
             d="m 0,0 56.065,69.746 h -220.623 -220.623 l 54.32,-67.576 c 1.771,-0.208 3.565,-0.314 5.376,-0.314 9.686,0 18.956,3.024 26.64,8.452 8.373,-18.243 26.791,-30.498 47.583,-30.498 10.374,0 20.383,3.052 28.885,8.685 4.691,-1.454 9.595,-2.2 14.559,-2.2 4.479,0 8.907,0.607 13.171,1.791 9.376,-9.703 22.411,-15.408 36.322,-15.408 14.359,0 27.718,6.076 37.103,16.229 6.703,-2.984 14.015,-4.557 21.506,-4.557 6.002,0 11.916,1.008 17.525,2.977 5.789,-2.881 12.202,-4.404 18.776,-4.404 10.587,0 20.588,3.953 28.224,10.828 3.18,-0.647 6.429,-0.973 9.701,-0.973 9.286,0 18.039,2.629 25.49,7.222"
             style="fill:#bfb7a4;fill-opacity:1;fill-rule:evenodd;stroke:none"
             id="path315" />
        </g>
        <g
           id="g317"
           transform="translate(308.4697,247.2471)">
          <path
             d="m 0,0 c -24.07,17.518 -46.667,63.521 -72.217,52.552 -23.04,-9.893 -13.928,-36.093 -14.443,-61.78 -0.393,-19.513 -5.931,-59.586 11.815,-69.468 22.988,-12.801 46.458,17.091 69.686,25.634 -10.198,-19.546 -20.395,-39.093 -30.59,-58.642 -1.996,-3.829 -0.88,-8.646 2.695,-11.624 13.906,-11.581 34.421,-16.628 56.786,-16.94 4.15,-0.059 7.489,2.52 8.396,6.48 4.044,17.679 8.093,35.359 12.137,53.041 3.524,-11.501 7.051,-23.004 10.576,-34.506 1.252,-4.079 4.876,-6.948 9.069,-7.172 13.129,-0.709 24.527,1.805 33.518,8.806 3.415,2.66 4.204,7.438 1.893,11.482 -8.369,14.651 -16.74,29.298 -25.108,43.948 12.953,-3.761 31.989,-21.965 38.859,-11.279 7.661,11.925 8.212,29.414 8.196,44.09 -0.011,8.316 13.107,42.244 2.043,44.091 C 98.618,22.835 76.465,6.408 53.04,0.258 51.542,6.068 54.273,15.761 48.543,17.689 40.457,20.41 33.171,16.108 25.074,14.741 18.746,13.673 9.755,16.683 3.815,14.485 -0.015,13.067 2.021,3.504 0,0"
             style="fill:#e63a00;fill-opacity:1;fill-rule:evenodd;stroke:none"
             id="path319" />
        </g>
        <g
           id="g321"
           transform="translate(349.7793,153.5781)">
          <path
             d="m 0,0 2.955,12.922 c 3.524,-11.501 7.054,-23.002 10.578,-34.506 1.25,-4.079 4.876,-6.948 9.072,-7.172 13.122,-0.709 24.522,1.807 33.511,8.806 -13.848,-4.987 -28.591,-5.771 -32.595,3.727 C 15.199,3.77 6.877,23.762 -1.443,43.754 -2.596,43.054 -3.749,42.355 -4.898,41.656 -4.019,37.612 -3.137,33.572 -2.254,29.528 -2.69,24.187 -3.713,17.124 -3.713,11.982 Z"
             style="fill:#cc3300;fill-opacity:1;fill-rule:evenodd;stroke:none"
             id="path323" />
        </g>
        <g
           id="g325"
           transform="translate(277.6074,122.1924)">
          <path
             d="m 0,0 c 13.822,-10.358 33.378,-14.918 54.594,-15.213 4.15,-0.059 7.489,2.52 8.394,6.48 C 67.034,8.945 71.08,26.626 75.127,44.31 73.392,49.844 71.652,55.378 69.915,60.914 64.935,46.051 59.951,31.187 54.972,16.324 51.107,4.8 41.069,-2.765 28.925,-3.297 19.224,-3.723 9.604,-2.081 0,0"
             style="fill:#cc3300;fill-opacity:1;fill-rule:evenodd;stroke:none"
             id="path327" />
        </g>
        <g
           id="g329"
           transform="translate(220.7842,261.1055)">
          <path
             d="m 0,0 v -0.002 z m 0,-0.002 c 0.449,-7.428 1.182,-15.279 1.025,-23.084 -0.392,-19.511 -5.93,-59.586 11.816,-69.469 22.987,-12.8 46.456,17.091 69.685,25.635 7.497,1.711 14.993,3.419 22.488,5.131 -10.374,1.943 -20.759,7.837 -31.124,5.834 C 54.092,-59.782 36.706,-85.687 17.806,-78.651 3.546,-73.341 10.304,-51.02 6.944,-36.179 4.318,-24.578 3.339,-12.898 0,-0.002"
             style="fill:#cc3300;fill-opacity:1;fill-rule:evenodd;stroke:none"
             id="path331" />
        </g>
        <g
           id="g333"
           transform="translate(382.6797,189.0586)">
          <path
             d="m 0,0 c 12.956,-3.762 31.994,-21.966 38.859,-11.279 7.664,11.925 8.213,29.414 8.199,44.09 -0.004,3.927 2.917,13.562 4.838,22.835 C 46.811,48.243 38.91,42.127 36.647,33.437 33.596,21.725 33.857,11.134 21.897,9.285 0.222,5.936 -4.641,17.099 -26.092,15.252 -14.246,9.228 -4.064,9.914 0,0"
             style="fill:#cc3300;fill-opacity:1;fill-rule:evenodd;stroke:none"
             id="path335" />
        </g>
        <g
           id="g337"
           transform="translate(305.166,209.9834)">
          <path
             d="M 0,0 C 26.444,-6.701 50.815,6.461 55.642,35.206 57.157,28.54 58.045,14.87 58.552,8.48 59.388,-2.208 53.944,-11.815 44.343,-16.585 34.737,-21.355 17.398,-20.361 9.391,-13.233 6.79,-10.921 2.201,-2.83 0,0"
             style="fill:#cc3300;fill-opacity:1;fill-rule:evenodd;stroke:none"
             id="path339" />
        </g>
        <g
           id="g341"
           transform="translate(136.6387,480.5176)">
          <path
             d="m 0,0 c 0.677,0 1.351,-0.023 2.018,-0.064 7.629,11.745 20.863,19.516 35.913,19.516 1.605,0 3.191,-0.091 4.754,-0.262 6.267,7.098 15.2,11.788 25.236,12.488 6.692,16.046 22.529,27.325 40.999,27.325 7.649,0 14.845,-1.934 21.128,-5.338 6.066,13.831 19.874,23.493 35.947,23.493 6.91,0 13.402,-1.786 19.04,-4.923 5.745,6.216 13.968,10.11 23.099,10.11 12.807,0 23.825,-7.658 28.73,-18.643 1.862,0.32 3.777,0.488 5.729,0.488 9.758,0 18.54,-4.172 24.661,-10.832 6.534,7.435 16.114,12.129 26.792,12.129 17.958,0 32.812,-13.275 35.295,-30.547 0.842,0.047 1.69,0.073 2.543,0.073 9.589,0 18.454,-3.093 25.657,-8.33 4.994,3.994 11.328,6.384 18.22,6.384 10.205,0 19.185,-5.236 24.403,-13.168 1.234,0.134 2.488,0.201 3.759,0.201 19.143,0 34.661,-15.518 34.661,-34.662 0,-14.694 -9.143,-27.254 -22.054,-32.295 -0.923,-13.307 -12.006,-23.819 -25.55,-23.819 -9.214,0 -17.293,4.867 -21.802,12.173 -2.348,-16.413 -16.459,-29.03 -33.522,-29.03 -5.197,0 -10.117,1.169 -14.517,3.26 -4.826,-7.867 -13.502,-13.116 -23.408,-13.116 -6.673,0 -12.79,2.386 -17.549,6.348 -5.537,-3.133 -11.934,-4.921 -18.751,-4.921 -9.918,0 -18.953,3.786 -25.738,9.99 -5.468,-12.737 -18.127,-21.663 -32.87,-21.663 -13.586,0 -25.399,7.576 -31.45,18.733 -5.245,-3.245 -11.426,-5.116 -18.045,-5.116 -6.156,0 -11.935,1.621 -16.932,4.459 -6.795,-6.762 -16.165,-10.942 -26.511,-10.942 -18.173,0 -33.334,12.896 -36.831,30.037 -4.291,0.982 -8.281,2.765 -11.796,5.186 -5.703,-7.978 -15.043,-13.179 -25.597,-13.179 -11.045,0 -20.758,5.696 -26.368,14.309 -2.946,-0.872 -6.066,-1.34 -9.293,-1.34 -18.084,0 -32.745,14.66 -32.745,32.744 C -32.745,-14.661 -18.084,0 0,0"
             style="fill:#e3dbc7;fill-opacity:1;fill-rule:evenodd;stroke:none"
             id="path343" />
        </g>
        <g
           id="g345"
           transform="translate(503.5762,535.5845)">
          <path
             d="m 0,0 c 14.67,-0.813 26.311,-12.963 26.311,-27.836 0,-3.296 -0.571,-6.458 -1.623,-9.393 9.402,-1.682 16.538,-9.901 16.538,-19.785 0,-11.1 -9,-20.1 -20.1,-20.1 -3.491,0 -6.771,0.891 -9.631,2.454 -5.298,-6.26 -13.208,-10.235 -22.05,-10.235 -3.506,0 -6.864,0.625 -9.972,1.768 -4.075,-13.047 -16.253,-22.519 -30.643,-22.519 -3.776,0 -7.4,0.653 -10.77,1.853 0.047,-0.612 0.071,-1.228 0.071,-1.851 0,-13.607 -11.03,-24.639 -24.638,-24.639 -8.373,0 -15.766,4.179 -20.223,10.561 -4.749,-5.306 -11.65,-8.648 -19.329,-8.648 -7.073,0 -13.483,2.834 -18.162,7.425 -2.239,-1.068 -4.749,-1.665 -7.398,-1.665 -3.314,0 -6.412,0.936 -9.037,2.559 -5.883,-6.672 -14.492,-10.879 -24.083,-10.879 -11.799,0 -22.108,6.366 -27.684,15.85 -2.79,-1.026 -5.807,-1.586 -8.951,-1.586 -6.598,0 -12.622,2.465 -17.197,6.525 -5.94,-6.027 -14.195,-9.768 -23.327,-9.768 -16.432,0 -30.038,12.106 -32.384,27.884 -3.331,0.059 -6.412,1.122 -8.962,2.896 -3.099,-7.786 -10.703,-13.289 -19.596,-13.289 -7.506,0 -14.095,3.922 -17.831,9.831 -2.73,-1.699 -5.956,-2.682 -9.409,-2.682 -9.849,0 -17.831,7.981 -17.831,17.831 0,6.394 3.364,11.997 8.418,15.144 -0.819,2.276 -1.267,4.729 -1.267,7.286 0,8.611 5.07,16.039 12.381,19.467 1.685,6.558 6.161,11.994 12.086,14.97 -0.739,1.977 -1.144,4.116 -1.144,6.352 0,9.369 7.098,17.08 16.209,18.051 0.035,13.127 10.539,23.795 23.606,24.088 1.674,11.016 11.186,19.458 22.673,19.458 3.613,0 7.031,-0.837 10.072,-2.326 3.069,8.899 11.516,15.294 21.457,15.294 5.463,0 10.473,-1.932 14.389,-5.147 -0.08,0.841 -0.125,1.693 -0.125,2.553 0,14.682 11.904,26.584 26.586,26.584 4.576,0 8.881,-1.158 12.638,-3.194 4.884,10.32 15.389,17.459 27.562,17.459 13.086,0 24.242,-8.248 28.561,-19.828 6.171,4.323 13.681,6.86 21.79,6.86 15.723,0 29.218,-9.545 35.007,-23.156 l 0.303,0.002 c 12.944,0 23.525,-10.116 24.272,-22.874 0.433,-0.315 0.849,-0.651 1.254,-1.004 1.184,0.227 2.409,0.347 3.658,0.347 8.218,0 15.239,-5.117 18.056,-12.339 3.006,1.664 6.467,2.613 10.149,2.613 11.593,0 20.994,-9.399 20.994,-20.994 C 1.674,5.307 1.077,2.526 0,0"
             style="fill:#94ab13;fill-opacity:1;fill-rule:evenodd;stroke:none"
             id="path347" />
        </g>
        <g
           id="g349"
           transform="translate(503.5762,535.5845)">
          <path
             d="m 0,0 c 14.67,-0.813 26.311,-12.963 26.311,-27.836 0,-3.296 -0.571,-6.458 -1.623,-9.393 9.402,-1.682 16.538,-9.901 16.538,-19.785 0,-11.1 -9,-20.1 -20.1,-20.1 -3.491,0 -6.771,0.891 -9.631,2.454 -5.298,-6.26 -13.208,-10.235 -22.05,-10.235 -3.506,0 -6.864,0.625 -9.972,1.768 -4.075,-13.047 -16.253,-22.519 -30.643,-22.519 -3.776,0 -7.4,0.653 -10.77,1.853 0.047,-0.612 0.071,-1.228 0.071,-1.851 0,-13.607 -11.03,-24.639 -24.638,-24.639 -8.373,0 -15.766,4.179 -20.223,10.561 -4.749,-5.306 -11.65,-8.648 -19.329,-8.648 -7.073,0 -13.483,2.834 -18.162,7.425 -2.239,-1.068 -4.749,-1.665 -7.398,-1.665 -3.314,0 -6.412,0.936 -9.037,2.559 -5.883,-6.672 -14.492,-10.879 -24.083,-10.879 -11.799,0 -22.108,6.366 -27.684,15.85 -2.79,-1.026 -5.807,-1.586 -8.951,-1.586 -6.598,0 -12.622,2.465 -17.197,6.525 -5.94,-6.027 -14.195,-9.768 -23.327,-9.768 -15.93,0 -29.2,11.373 -32.137,26.443 21.179,-14.786 43.203,-20.254 66.827,-8.125 10.378,-14.68 26.693,-7.522 33.718,4.863 12.972,-6.41 28.523,-2.886 35.011,13.292 11.457,-7.78 22.912,-8.861 34.367,0.648 26.678,-22.543 62.045,-0.518 46.035,33.393 13.198,-17.569 41.609,-6.563 38.258,13.616 14.489,-3.408 31.854,11.884 15.884,32.744 13.197,2.968 16.863,28.318 -5.534,29.644 3.006,1.664 6.467,2.613 10.149,2.613 11.593,0 20.994,-9.399 20.994,-20.994 C 1.674,5.307 1.077,2.526 0,0"
             style="fill:#82970a;fill-opacity:1;fill-rule:evenodd;stroke:none"
             id="path351" />
        </g>
        <g
           id="g353"
           transform="translate(351.1152,574.7192)">
          <path
             d="m 0,0 c 14.899,0 27.061,-15.339 27.778,-34.618 18.557,5.274 36.904,-1.553 41.506,-15.721 4.604,-14.168 -6.226,-30.475 -24.338,-37.116 10.748,-16.018 9.927,-35.578 -2.127,-44.333 -12.051,-8.757 -30.907,-3.495 -42.819,11.678 -11.915,-15.173 -30.768,-20.435 -42.819,-11.678 -12.056,8.755 -12.875,28.315 -2.127,44.333 -18.113,6.641 -28.942,22.948 -24.341,37.116 4.605,14.168 22.952,20.995 41.509,15.721 C -27.061,-15.339 -14.899,0 0,0"
             style="fill:#ff9999;fill-opacity:1;fill-rule:evenodd;stroke:none"
             id="path355" />
        </g>
        <g
           id="g357"
           transform="translate(351.1152,480.5088)">
          <path
             d="M 0,0 C 14.431,0 26.197,11.768 26.197,26.198 26.197,40.626 14.431,52.394 0,52.394 -14.429,52.394 -26.197,40.626 -26.197,26.198 -26.197,11.768 -14.429,0 0,0"
             style="fill:#ffdd30;fill-opacity:1;fill-rule:evenodd;stroke:none"
             id="path359" />
        </g>
        <g
           id="g361"
           transform="translate(435.5293,617.8569)">
          <path
             d="m 0,0 c 7.121,4.148 19.745,-4.156 28.647,-18.647 6.529,9.185 18.33,9.092 26.823,-0.424 8.489,-9.517 10.551,-24.961 4.84,-35.065 12.25,-9.216 20.541,-24.352 18.669,-34.383 -1.875,-10.029 -13.226,-11.269 -25.656,-3.023 1.038,-14.88 -5.639,-24.142 -15.287,-20.824 -9.648,3.317 -18.726,17.995 -20.697,33.198 -11.609,0.016 -24.025,9.429 -28.114,21.509 -4.088,12.081 1.65,22.391 12.862,23.54 C -6.125,-19.227 -7.124,-4.149 0,0"
             style="fill:#ff9999;fill-opacity:1;fill-rule:evenodd;stroke:none"
             id="path363" />
        </g>
        <g
           id="g365"
           transform="translate(454.0918,585.9883)">
          <path
             d="M 0,0 C 6.917,4.028 17.732,-1.646 24.154,-12.672 30.575,-23.7 30.177,-35.904 23.26,-39.933 16.344,-43.962 5.53,-38.289 -0.893,-27.264 -7.315,-16.234 -6.916,-4.029 0,0"
             style="fill:#ffdd30;fill-opacity:1;fill-rule:evenodd;stroke:none"
             id="path367" />
        </g>
        <g
           id="g369"
           transform="translate(137.0879,463.1777)">
          <path
             d="m 0,0 c 7.121,-4.147 19.747,4.156 28.65,18.648 6.529,-9.185 18.33,-9.092 26.821,0.423 8.491,9.516 10.55,24.961 4.842,35.066 12.25,9.215 20.541,24.352 18.666,34.382 -1.873,10.028 -13.223,11.27 -25.655,3.023 1.04,14.881 -5.637,24.143 -15.286,20.825 C 28.389,109.049 19.312,94.372 17.341,79.17 5.732,79.151 -6.685,69.739 -10.772,57.66 -14.863,45.578 -9.122,35.269 2.09,34.118 -6.125,19.227 -7.121,4.15 0,0"
             style="fill:#ff9999;fill-opacity:1;fill-rule:evenodd;stroke:none"
             id="path371" />
        </g>
        <g
           id="g373"
           transform="translate(155.6533,495.0474)">
          <path
             d="M 0,0 C 6.914,-4.029 17.73,1.644 24.154,12.671 30.577,23.698 30.174,35.903 23.26,39.933 16.343,43.96 5.53,38.287 -0.895,27.262 -7.315,16.235 -6.917,4.028 0,0"
             style="fill:#ffdd30;fill-opacity:1;fill-rule:evenodd;stroke:none"
             id="path375" />
        </g>
        <g
           id="g377"
           transform="translate(227.1201,596.3896)">
          <path
             d="m 0,0 c 0.173,-6.962 12.23,-10.143 27.211,-7.333 -3.88,-9.535 1.638,-16.995 12.697,-16.835 11.061,0.16 23.598,7.882 28.545,17.429 12.565,-2.407 27.747,1.165 34.408,8.228 6.661,7.059 2.351,15.012 -9.57,18.105 11.643,8.043 15.51,17.715 8.566,21.918 -6.94,4.204 -22.141,1.397 -34.458,-6.24 -5.371,7.381 -18.164,9.783 -29.116,5.319 C 27.335,36.128 22.246,26.442 26.561,18.631 11.596,15.148 -0.177,6.964 0,0"
             style="fill:#ff9999;fill-opacity:1;fill-rule:evenodd;stroke:none"
             id="path379" />
        </g>
        <g
           id="g381"
           transform="translate(259.5967,603.2109)">
          <path
             d="m 0,0 c 0.169,-6.762 9.416,-10.331 20.653,-7.969 11.24,2.361 20.211,9.755 20.043,16.517 -0.169,6.761 -9.418,10.33 -20.655,7.969 C 8.804,14.158 -0.169,6.764 0,0"
             style="fill:#ffdd30;fill-opacity:1;fill-rule:evenodd;stroke:none"
             id="path383" />
        </g>
      </g>
    </g>
  </g>
</svg>
